#!OML:ASF X:\für Bonn\!DataBase\2005_08_10_Bjorn_Final\c3d\bjorn.ASF
:FULLY-SPECIFIED
:DEGREES
151
root 3.24713 7.78989 -0.48012 298.896 -262.019 -408.391
lowerback 50.4674 -7.8823 4.96811
upperback 22.6535 -1.40704 5.32326
thorax 4.82773 1.31626 4.11203
lowerneck -5.56759 -10.2404 -0.636916
upperneck 8.23401 -13.8125 3.11584
head 3.96791 -6.67808 0.400775
rclavicle 6.36111e-015 1.51076e-014
rhumerus 2.68442 -12.6049 -73.76
rradius 32.3911
rwrist 16.5373
rhand -51.475 54.214
rfingers 7.12502
rthumb -24.0041 25.6949
lclavicle 6.36111e-015 1.51076e-014
lhumerus 30.16 -29.7302 53.2898
lradius 38.6812
lwrist -15.9197
lhand -25.0357 -16.0106
lfingers 7.12502
lthumb 1.47704 13.9641
rfemur 29.7629 -73.3996 -137.878
rtibia 154.859
rfoot -84.0039 71.8936
rtoes -20.0396
lfemur -61.1785 82.6908 1.31252
ltibia 155.506
lfoot -44.1294 -29.7536
ltoes -31.5392
152
root 3.25642 7.75277 -0.482954 298.775 -262.165 -408.339
lowerback 50.4701 -7.94956 5.06598
upperback 22.693 -1.43737 5.30392
thorax 4.8773 1.31736 4.05981
lowerneck -5.67636 -10.1751 -0.637074
upperneck 8.29906 -13.7242 3.0649
head 4.00585 -6.63375 0.381365
rclavicle 2.8625e-014 -2.22639e-014
rhumerus 2.58132 -12.6356 -73.8499
rradius 32.4537
rwrist 16.7914
rhand -51.5314 54.8031
rfingers 7.12502
rthumb -24.0582 26.2911
lclavicle 2.8625e-014 -2.22639e-014
lhumerus 29.7421 -29.8851 53.5274
lradius 38.4612
lwrist -16.042
lhand -25.0315 -15.8616
lfingers 7.12502
lthumb 1.48115 14.113
rfemur 30.6248 -72.9506 -139.261
rtibia 155.063
rfoot -85.5353 72.3727
rtoes -19.3694
lfemur -47.9066 84.6169 15.1606
ltibia 155.799
lfoot -45.1703 -30.005
ltoes -31.7784
153
root 3.26485 7.71861 -0.485864 298.698 -262.332 -408.26
lowerback 50.4523 -8.00983 5.1833
upperback 22.7433 -1.45296 5.29072
thorax 4.94119 1.3275 4.00073
lowerneck -5.80745 -10.1046 -0.597732
upperneck 8.35444 -13.6313 2.99507
head 4.03974 -6.58695 0.34915
rclavicle 2.22639e-014 -2.8625e-014
rhumerus 2.49011 -12.7064 -73.9393
rradius 32.5251
rwrist 17.0614
rhand -51.6303 55.3303
rfingers 7.12502
rthumb -24.1531 26.8309
lclavicle 2.22639e-014 -2.8625e-014
lhumerus 29.358 -30.0754 53.7134
lradius 38.2901
lwrist -16.1608
lhand -25.0183 -15.6951
lfingers 7.12502
lthumb 1.49392 14.2794
rfemur 31.2373 -72.5865 -140.301
rtibia 155.257
rfoot -86.8229 72.7787
rtoes -18.783
lfemur -23.2183 85.9637 40.4714
ltibia 156.086
lfoot -46.1606 -30.2875
ltoes -31.7923
154
root 3.27341 7.6865 -0.488817 298.773 -262.506 -408.032
lowerback 50.4308 -8.0835 5.33789
upperback 22.77 -1.4725 5.27243
thorax 4.97935 1.33827 3.91954
lowerneck -5.87596 -10.0401 -0.551841
upperneck 8.39819 -13.5441 2.91398
head 4.05607 -6.54411 0.316115
rclavicle -1.90833e-014 -4.6118e-014
rhumerus 2.35291 -12.8273 -74.0496
rradius 32.5836
rwrist 17.3496
rhand -51.6745 55.9053
rfingers 7.12502
rthumb -24.1955 27.4116
lclavicle -1.90833e-014 -4.6118e-014
lhumerus 28.9293 -30.2832 53.9297
lradius 38.1335
lwrist -16.3465
lhand -24.9856 -15.6636
lfingers 7.12502
lthumb 1.52551 14.3107
rfemur 31.8292 -72.2146 -141.267
rtibia 155.423
rfoot -88.1714 73.2073
rtoes -18.0772
lfemur 0.0650182 86.148 64.3573
ltibia 156.349
lfoot -46.8823 -30.4309
ltoes -32.0317
155
root 3.28128 7.65653 -0.490727 298.871 -262.673 -407.799
lowerback 50.3901 -8.13349 5.44805
upperback 22.8037 -1.48524 5.28775
thorax 5.02653 1.34376 3.89212
lowerneck -5.90512 -9.9678 -0.529696
upperneck 8.39196 -13.4406 2.80857
head 4.04647 -6.49688 0.283937
rclavicle 3.18055e-015 2.8625e-014
rhumerus 2.20219 -12.8801 -74.1018
rradius 32.6773
rwrist 17.6236
rhand -51.7271 56.3988
rfingers 7.12502
rthumb -24.2459 27.9117
lclavicle 3.18055e-015 2.8625e-014
lhumerus 28.4752 -30.5077 54.1497
lradius 38.018
lwrist -16.4467
lhand -25.0273 -15.7117
lfingers 7.12502
lthumb 1.48522 14.2629
rfemur 32.4733 -71.8214 -142.257
rtibia 155.586
rfoot -89.4876 73.5613
rtoes -17.4577
lfemur 19.6483 85.7457 84.5483
ltibia 156.605
lfoot -47.4967 -30.6251
ltoes -32.1081
156
root 3.28895 7.6283 -0.493164 299.025 -262.843 -407.497
lowerback 50.3547 -8.20456 5.61707
upperback 22.8248 -1.49882 5.26975
thorax 5.05989 1.35863 3.8023
lowerneck -5.91777 -9.89505 -0.449735
upperneck 8.39941 -13.3432 2.71911
head 4.03555 -6.44986 0.247957
rclavicle 9.54166e-015 8.11041e-014
rhumerus 1.99011 -13.0053 -74.1944
rradius 32.8002
rwrist 17.8488
rhand -51.7602 56.9185
rfingers 7.12502
rthumb -24.2777 28.4357
lclavicle 9.54166e-015 8.11041e-014
lhumerus 28.0639 -30.8271 54.2993
lradius 37.9116
lwrist -16.4698
lhand -25.0438 -15.7149
lfingers 7.12502
lthumb 1.46928 14.2598
rfemur 32.9218 -71.4538 -143.003
rtibia 155.741
rfoot -90.8112 73.6981
rtoes -17.2272
lfemur 33.7677 84.9559 99.2635
ltibia 156.837
lfoot -48.083 -30.8533
ltoes -32.1485
157
root 3.29665 7.60117 -0.494605 299.179 -263.03 -407.218
lowerback 50.2921 -8.25868 5.77213
upperback 22.847 -1.50552 5.26439
thorax 5.09695 1.3726 3.72929
lowerneck -5.8642 -9.81361 -0.383482
upperneck 8.34143 -13.2307 2.62815
head 3.98925 -6.39836 0.22042
rclavicle 9.54166e-015 -2.38542e-015
rhumerus 1.75541 -13.042 -74.2577
rradius 32.9537
rwrist 17.9869
rhand -51.7855 57.3355
rfingers 7.12502
rthumb -24.3018 28.856
lclavicle 9.54166e-015 -2.38542e-015
lhumerus 27.6377 -31.1979 54.3971
lradius 37.8418
lwrist -16.4022
lhand -25.1145 -15.7177
lfingers 7.12502
lthumb 1.40099 14.2575
rfemur 33.4128 -71.1082 -143.764
rtibia 155.89
rfoot -92.0712 74.0036
rtoes -16.5802
lfemur 43.9963 83.8973 110.134
ltibia 157.067
lfoot -48.7454 -31.0902
ltoes -32.1771
158
root 3.30401 7.57529 -0.495675 299.245 -263.175 -407.012
lowerback 50.2566 -8.3055 5.91382
upperback 22.8475 -1.50744 5.25327
thorax 5.10554 1.38765 3.65415
lowerneck -5.75202 -9.74026 -0.285316
upperneck 8.25526 -13.1283 2.51711
head 3.91778 -6.35285 0.185189
rclavicle -3.81667e-014 -1.72545e-013
rhumerus 1.52376 -13.1595 -74.3224
rradius 33.081
rwrist 18.1802
rhand -51.8093 57.7062
rfingers 7.12502
rthumb -24.3247 29.2297
lclavicle -3.81667e-014 -1.72545e-013
lhumerus 27.1995 -31.5756 54.5478
lradius 37.7755
lwrist -16.4201
lhand -25.157 -15.7158
lfingers 7.12502
lthumb 1.35997 14.2596
rfemur 33.8466 -70.7137 -144.498
rtibia 156.016
rfoot -93.5078 74.2425
rtoes -16.1038
lfemur 50.5551 82.6899 117.247
ltibia 157.279
lfoot -49.4583 -31.1819
ltoes -32.3315
159
root 3.31025 7.55218 -0.496475 299.373 -263.309 -406.776
lowerback 50.2056 -8.34561 6.03545
upperback 22.8362 -1.5165 5.24404
thorax 5.10197 1.39468 3.59109
lowerneck -5.63142 -9.65557 -0.162147
upperneck 8.18312 -13.0105 2.38007
head 3.84585 -6.29959 0.138653
rclavicle 3.49861e-014 -4.29375e-014
rhumerus 1.2997 -13.2384 -74.3953
rradius 33.1816
rwrist 18.435
rhand -51.8939 57.9282
rfingers 7.12502
rthumb -24.4058 29.4626
lclavicle 3.49861e-014 -4.29375e-014
lhumerus 26.7192 -31.9891 54.6315
lradius 37.8107
lwrist -16.4403
lhand -25.1415 -15.6272
lfingers 7.12502
lthumb 1.37486 14.3481
rfemur 34.3003 -70.3701 -145.226
rtibia 156.15
rfoot -94.747 74.2887
rtoes -15.8987
lfemur 54.0522 81.7429 121.286
ltibia 157.47
lfoot -49.9213 -31.4326
ltoes -32.2783
160
root 3.31666 7.53004 -0.496843 299.491 -263.436 -406.537
lowerback 50.1684 -8.38217 6.15344
upperback 22.8212 -1.52002 5.24108
thorax 5.0924 1.40365 3.53494
lowerneck -5.44984 -9.568 -0.069229
upperneck 8.03716 -12.8858 2.25973
head 3.74025 -6.24549 0.108198
rclavicle 5.08889e-014 -1.19271e-014
rhumerus 1.07232 -13.2853 -74.4388
rradius 33.2847
rwrist 18.6404
rhand -52.0247 58.1469
rfingers 7.12502
rthumb -24.5312 29.6983
lclavicle 5.08889e-014 -1.19271e-014
lhumerus 26.2428 -32.395 54.7236
lradius 37.8594
lwrist -16.5544
lhand -25.1321 -15.5191
lfingers 7.12502
lthumb 1.38399 14.4562
rfemur 34.6854 -70.0159 -145.851
rtibia 156.251
rfoot -96.0533 74.6326
rtoes -15.1781
lfemur 56.8154 80.7124 124.597
ltibia 157.659
lfoot -50.3953 -31.6851
ltoes -32.2136
161
root 3.32312 7.50973 -0.496217 299.317 -263.541 -406.591
lowerback 50.1535 -8.3942 6.20895
upperback 22.8037 -1.52067 5.23574
thorax 5.07556 1.40721 3.50333
lowerneck -5.2893 -9.47 0.0497212
upperneck 7.88803 -12.7463 2.09592
head 3.63279 -6.18487 0.0595097
rclavicle 1.27222e-014 8.34896e-014
rhumerus 0.926216 -13.3747 -74.5138
rradius 33.3029
rwrist 18.917
rhand -52.0984 58.3693
rfingers 7.12502
rthumb -24.6018 29.9303
lclavicle 1.27222e-014 8.34896e-014
lhumerus 25.7473 -32.7936 54.8091
lradius 37.9361
lwrist -16.5269
lhand -25.1064 -15.4525
lfingers 7.12502
lthumb 1.40879 14.5226
rfemur 34.8965 -69.7308 -146.325
rtibia 156.358
rfoot -97.2123 74.7167
rtoes -14.8873
lfemur 58.9929 79.5971 127.26
ltibia 157.82
lfoot -50.8963 -32.0188
ltoes -32.0383
162
root 3.32901 7.49153 -0.496306 299.16 -263.625 -406.638
lowerback 50.1317 -8.40627 6.25699
upperback 22.7813 -1.52555 5.23965
thorax 5.05388 1.40644 3.48597
lowerneck -5.06682 -9.36667 0.121534
upperneck 7.68304 -12.5967 1.96181
head 3.50069 -6.12093 0.0330476
rclavicle -1.27222e-014 -9.54166e-015
rhumerus 0.760102 -13.3856 -74.5337
rradius 33.3295
rwrist 19.1317
rhand -52.2093 58.6837
rfingers 7.12502
rthumb -24.7081 30.2592
lclavicle -1.27222e-014 -9.54166e-015
lhumerus 25.2802 -33.2263 54.87
lradius 38.0005
lwrist -16.4789
lhand -25.1098 -15.3652
lfingers 7.12502
lthumb 1.40557 14.6099
rfemur 35.0299 -69.4875 -146.721
rtibia 156.443
rfoot -98.3856 74.9522
rtoes -14.3434
lfemur 60.6731 78.5157 129.356
ltibia 157.964
lfoot -51.4604 -32.146
ltoes -32.0455
163
root 3.33488 7.47451 -0.495233 298.777 -263.669 -406.935
lowerback 50.0764 -8.39707 6.26941
upperback 22.7701 -1.52767 5.23363
thorax 5.04713 1.40468 3.47205
lowerneck -4.9243 -9.27088 0.214141
upperneck 7.50769 -12.4592 1.80088
head 3.39176 -6.06199 -0.011333
rclavicle -5.725e-014 -3.65764e-014
rhumerus 0.656164 -13.4672 -74.5808
rradius 33.271
rwrist 19.3999
rhand -52.2807 58.9966
rfingers 7.12502
rthumb -24.7765 30.5814
lclavicle -5.725e-014 -3.65764e-014
lhumerus 24.8305 -33.6363 54.9436
lradius 38.0651
lwrist -16.4724
lhand -25.1577 -15.3368
lfingers 7.12502
lthumb 1.35926 14.6386
rfemur 35.2176 -69.253 -147.202
rtibia 156.528
rfoot -99.555 75.1894
rtoes -13.8343
lfemur 61.5382 77.7714 130.56
ltibia 158.091
lfoot -51.7416 -32.4231
ltoes -31.8717
164
root 3.34063 7.45959 -0.494042 298.684 -263.73 -406.927
lowerback 50.062 -8.40354 6.3031
upperback 22.7319 -1.53269 5.24205
thorax 5.00601 1.40059 3.46534
lowerneck -4.89508 -9.18169 0.286456
upperneck 7.4721 -12.3262 1.56765
head 3.34981 -6.00392 -0.0862328
rclavicle 3.49861e-014 1.11319e-014
rhumerus 0.528963 -13.4895 -74.613
rradius 33.1926
rwrist 19.6127
rhand -52.3933 59.3716
rfingers 7.12502
rthumb -24.8845 30.9714
lclavicle 3.49861e-014 1.11319e-014
lhumerus 24.3573 -34.1034 54.9819
lradius 38.175
lwrist -16.3241
lhand -25.1847 -15.2649
lfingers 7.12502
lthumb 1.3332 14.7106
rfemur 144.625 68.9696 32.3972
rtibia 203.401
rfoot -100.78 104.644
rtoes -13.356
lfemur 62.1672 77.0071 131.573
ltibia 158.203
lfoot -52.0344 -32.7291
ltoes -31.6925
165
root 3.34572 7.44578 -0.492967 298.454 -263.779 -407.087
lowerback 50.0174 -8.38443 6.31441
upperback 22.6976 -1.5242 5.25886
thorax 4.97128 1.39911 3.47223
lowerneck -4.98243 -9.09272 0.326751
upperneck 7.54308 -12.1947 1.34451
head 3.37067 -5.94394 -0.163165
rclavicle -3.81667e-014 -1.15295e-013
rhumerus 0.433163 -13.5401 -74.6273
rradius 33.0633
rwrist 19.8774
rhand -52.5079 59.7179
rfingers 7.12502
rthumb -24.9943 31.3329
lclavicle -3.81667e-014 -1.15295e-013
lhumerus 23.9064 -34.5563 55.0506
lradius 38.2565
lwrist -16.1913
lhand -25.2083 -15.2592
lfingers 7.12502
lthumb 1.3104 14.7166
rfemur 144.491 68.7783 32.0464
rtibia 203.334
rfoot -101.79 104.505
rtoes -13.0366
lfemur 62.6856 76.435 132.396
ltibia 158.309
lfoot -52.2084 -32.9462
ltoes -31.4814
